<svg width="79.089mm" height="87.019mm" version="1.1" viewBox="0 0 79.089 87.019" xmlns="http://www.w3.org/2000/svg">
 <g transform="translate(-11.976 -26.049)">
  <g stroke="#000">
   <g>
    <path d="m64.195 75.57c-0.12056-13.011 15.697-28.609 22.271-17.061 4.077 5.4467 3.2511 17.14-11.732 24.381z" fill="#fee5bb"/>
    <path d="m60.725 106.38c4.5927 4.5927 4.3327 4.3327 4.3327 4.3327l-0.86654-5.6325z"/>
    <path d="m43.519 80.076c-7.9122-10.329-29.978-12.889-28.054 0.2588 0.13855 6.8021 7.986 15.511 24.252 11.997z" fill="#fee5bb"/>
   </g>
   <circle cx="55.458" cy="87.06" r="20.713" fill="#fefe00" stroke-linecap="round" stroke-linejoin="round"/>
   <circle cx="47.574" cy="63.674" r="15.502" fill="#fee5bb" stroke-linecap="round" stroke-linejoin="round"/>
  </g>
  <g stroke="#000">
   <g>
    <path d="m36.902 95.895c12.743 2.5064 29.227-3.2546 38.468-10.769l0.53454 5.5422c-5.4777 8.4135-28.7 13.684-34.499 10.523-3.6611-1.6213-4.5031-5.2964-4.5031-5.2964z"/>
    <path d="m39.858 70.536c7.9696-3.4067 13.838-3.3025 16.469-3.8617 0.17763 9.1486-14.671 8.9387-16.469 3.8617z" stroke-width=".41277"/>
    <path d="m35.045 84.305c8.9636 1.7505 27.148-2.4987 36.389-10.013l2.2354 4.4083c-5.4777 8.4135-35.314 14.251-38.657 11.09-0.63731-0.10936 0.03259-5.4854 0.03259-5.4854z"/>
   </g>
   <ellipse cx="41.294" cy="61.158" rx="2.9293" ry="4.7397" stroke-linecap="round" stroke-linejoin="round" stroke-width="1.1"/>
   <ellipse transform="rotate(-13.189)" cx="37.213" cy="69.4" rx="2.9293" ry="4.7397" stroke-linecap="round" stroke-linejoin="round" stroke-width="1.1"/>
  </g>
  <g stroke="#000">
   <path d="m52.788 71.424c0.16148 1.6701-4.9391 4.2893-6.6092 4.4508-1.6701 0.16148-1.4619-1.2252-1.6234-2.8953-0.16148-1.6701 1.9231-2.099 3.5932-2.2605 1.6701-0.16148 4.4779-0.96511 4.6394 0.705z" fill="#fec0bb" stroke-linecap="round" stroke-linejoin="round" stroke-width=".69346"/>
   <path transform="rotate(265.62 24.205 54.338)" d="m22.868 53.394c0.62646 2.338-2.8425 1.9979-3.8859 1.0412-2.8275-2.5926-0.95046-7.0479 1.8034-8.8129 4.9261-3.1572 11.274-0.19513 13.74 4.6481 3.6185 7.1076-0.55014 15.57-7.4927 18.667" fill="none" stroke-width=".26458"/>
   <path transform="rotate(-33.939 6.8122 19.53)" d="m22.868 53.394c0.62646 2.338-2.8425 1.9979-3.8859 1.0412-2.8275-2.5926-0.95046-7.0479 1.8034-8.8129 4.9261-3.1572 11.274-0.19513 13.74 4.6481 3.6185 7.1076-0.55014 15.57-7.4927 18.667" fill="none" stroke-width=".26458"/>
   <path d="m60.174 91.471c-2.6269-0.06981-5.8473 0.95684-4.5178 2.8362 2.3385 0.89189 3.6328 1.2732 1.2883 3.0388-6.183-0.24471-5.0305 8.3739 1.4283 7.4582 6.4588-0.91575 6.4774-4.7278 6.9677-6.4295 2.689-0.5974-0.84487-8.4253-2.366-5.8355z" fill="#fff"/>
   <path d="m36.809 101.72 22.657-17.427c-2.4014-4.5974-2.2207-8.5569-1.2917-12.332 4.698-5.3822 14.35-5.3634 16.76-5.0361-4.964 5.117-7.0428 5.5088-9.2457 9.0613 1.9645 4.6549 4.5244 6.8996 7.0967 9.094l9.8784-7.5703c-0.05589 9.4693-4.2766 12.914-6.7924 15.34-4.7886 0.39659-8.856-0.99144-12.502-3.422l-22.106 17.897c-2.278-1.0709-3.9486-2.7525-4.4548-5.6052z" fill="#d9d9d9"/>
  </g>
  <g fill="#fff">
   <path d="m39.357 93.24c2.4528 0.94289 5.0334 3.1261 3.0847 4.3519-2.5017-0.0731-3.8433-0.21727-2.3551 2.3125 5.8041 2.1451 1.4346 9.6629-4.1792 6.3402-5.6138-3.3226-4.1691-6.8504-3.9693-8.61-2.2543-1.5829 4.0113-7.4572 4.4229-4.482z" stroke="#000"/>
   <g fill-opacity=".96774">
    <path d="m58.775 71.821c3.6476-3.876 10.682-5.3671 15.025-4.4412-2.744 1.7512-9.9766 1.7622-15.025 4.4412z"/>
    <path d="m72.488 85.808c3.9713-0.35177 8.1075-3.8026 9.5743-6.7888-2.3019 0.80427-5.6589 5.0578-9.5743 6.7888z"/>
    <path d="m60.004 84.388 0.56696 0.66146-19.371 14.836-0.75595-0.37798z"/>
   </g>
  </g>
 </g>
</svg>
